<svg xmlns="http://www.w3.org/2000/svg" viewBox="0 0 174 70"><defs><style>.cls-1{fill:#4f9e80;}.cls-2{fill:#a7745d;}.cls-3{fill:#974c31;}.cls-4{fill:#e6734a;}.cls-5{fill:#2f3035;}.cls-6{fill:#f8ac8b;}.cls-10,.cls-7{fill:#231f20;stroke:#231f20;}.cls-10,.cls-7,.cls-9{stroke-miterlimit:1;}.cls-7{stroke-width:0.5px;}.cls-8{fill:none;stroke:#d17b68;stroke-miterlimit:10;stroke-width:0.2px;}.cls-9{fill:#fff;stroke:#fff;}.cls-10,.cls-9{stroke-width:0.3px;}.cls-11{fill:#379173;}.cls-12{fill:#287658;}.cls-13{fill:#020202;}.cls-14{fill:#db0a16;}</style></defs><title>Asset 47</title><g id="Layer_2" data-name="Layer 2"><g id="Layer_1-2" data-name="Layer 1"><path class="cls-1" d="M79.43,31.05s-.77,4.35-2.11,6.29l.61.39,1.51-2.53.1-.61S79.73,31.24,79.43,31.05Z"/><path class="cls-2" d="M77.33,37.41a7,7,0,0,0-.79,1.42l.1.21,0,1.06.25.11.25-.94.13,0-.19,1h.23l.18-1,.09,0,0,.87.2,0,.27-.88s.61-1.18.08-1.62L78,37.63l-.66-.28Z"/><path class="cls-3" d="M86,58.13,84.9,58l.27,1.46,3.68-.79a1,1,0,0,0-1.33-.61l-1.31.23Z"/><path class="cls-4" d="M74.57,57.25l-1-.59-.4,1.42,3.64.94s.19-.91-.92-1.13l-1.27-.38Z"/><path class="cls-5" d="M83.86,40.51s0,1.18-.45,1.45c0,0,1.74,9.92,1.9,10.61l.8,5.74H85L81.28,43.9,74.51,57.36l-1-.46,5.55-14.68-.42-1v-.67S79.79,41,83.86,40.51Z"/><path class="cls-6" d="M77.57,19.35s1.59,2.7,2.19,3v2.05s.64.92,2.31,0v-.51s3.07,2.09,5.54.27a6.73,6.73,0,0,0,1.19-4V20s1.44.24,1.36-1c0,0-1.84-.54-.92-2.7l.13-3.4-.29.08s-1.43,1.62-3,1.5l1.16-2.16s-1.63,2.05-3.35,2.08l-2,.12S79.6,16.1,79.6,17.07l-.72,1.55s.88-2.59-.81-3.37c0,0-2.65-1.5-1.94,1.82C76.13,17.07,77.35,19,77.57,19.35Z"/><path class="cls-7" d="M78.86,16a21.18,21.18,0,0,1,.3,2.63l.08.48s.85-2.56,1.37-2.77A3.08,3.08,0,0,0,81.76,15s3.56.48,5.21-2h.17a3.72,3.72,0,0,1-1.74,1.86l-.19.09a3.65,3.65,0,0,0,3.62-1.42l.17-.18.06.94a15.17,15.17,0,0,0,.2-4l.08-.14a4.43,4.43,0,0,1,.5,2.46v.28s1.62,1-.23-3l-.75-1h.91s-.56.11-1.18-.74c0,0-3-3-6.77-2.77,0,0-8.85-.15-8.24,7.91,0,0-.31,1.9,3.42,7.15,0,0,1.33,1.86.61,3.31L79,22.87l-.11,1.18,1.06-.68.31.91s.57-1.6-1.37-3.46c0,0-3.46-3-2-5.09C76.85,15.73,77.74,14.12,78.86,16Z"/><path class="cls-8" d="M77.67,16.18s.91.08.19,2.32"/><path class="cls-9" d="M87.24,17.34a.91.91,0,1,0,.9-1.08A1,1,0,0,0,87.24,17.34Z"/><path class="cls-10" d="M88.08,17.34a.48.48,0,1,0,.48-.58A.53.53,0,0,0,88.08,17.34Z"/><path class="cls-8" d="M87.68,22.22s-1.29.27-1.68-.3"/><path class="cls-11" d="M79.76,24.28a1.28,1.28,0,0,0,1.31.41,1.8,1.8,0,0,0,1.07-.41.77.77,0,0,1,.15,1.06,5.22,5.22,0,0,0-.07,1.25l.7,5.6,1,7.7v.89s-3.3,1.82-5.27-.18l.68-8.09.43-7A.75.75,0,0,1,79.76,24.28Z"/><path class="cls-12" d="M82.22,27.91s-1-1.58-1.94-.51c0,0-.79.48.19,2,0,0,3.5,8.16,4.61,9.48L85.75,40l.56-.48a34.45,34.45,0,0,1-1.69-3.26c.09-.12-2.7-8.18-2.55-8.24"/><path class="cls-6" d="M86.3,39.46s1.12.87,1.18,1.1l0,.23.35,1-.21.18-.52-.82-.11.08.48.87-.22.07-.46-.86-.08.07.31.81-.18.09-.52-.75s-1-.93-.58-1.52l0-.15.55-.47Z"/><path class="cls-13" d="M132.43,55.73c0,.41,0,.81.06,1.22a13.69,13.69,0,0,0,27.31.58,13.38,13.38,0,0,0,.12-1.8,13.75,13.75,0,1,0-27.49,0Zm22.28-1.21h-4a4.88,4.88,0,0,0-.5-1.25l2.81-2.92A9.17,9.17,0,0,1,154.71,54.52Zm-1.66,6.62-2.81-2.91a4.81,4.81,0,0,0,.5-1.24h4A9,9,0,0,1,153.05,61.14Zm-5.69-.66a4.9,4.9,0,0,0,1.2-.5l2.79,2.9a8.39,8.39,0,0,1-4,1.72Zm0-13.6a8.4,8.4,0,0,1,4,1.72l-2.8,2.91a4.75,4.75,0,0,0-1.22-.53ZM145,51a4.6,4.6,0,0,0-1.22.53l-2.8-2.9a8.28,8.28,0,0,1,4-1.73Zm-4,11.9,2.8-2.9a4.9,4.9,0,0,0,1.2.5v4.11A8.45,8.45,0,0,1,141,62.88ZM137.64,57h4a4.77,4.77,0,0,0,.51,1.23l-2.82,2.93A9.15,9.15,0,0,1,137.64,57Zm4-2.47h-4a9.08,9.08,0,0,1,1.65-4.16l2.8,2.91a4.93,4.93,0,0,0-.49,1.26Z"/><path d="M16.71,55.73c0,.41,0,.81.06,1.22A14,14,0,0,0,30.46,70,13.92,13.92,0,0,0,44.08,57.53a15.25,15.25,0,0,0,.12-1.8A14,14,0,0,0,30.46,41.47,14,14,0,0,0,16.71,55.73ZM39,54.52H35a4.88,4.88,0,0,0-.5-1.25l2.81-2.92A9,9,0,0,1,39,54.52Zm-1.65,6.62-2.81-2.91A5.19,5.19,0,0,0,35,57h4A9,9,0,0,1,37.33,61.14Zm-5.69-.66a4.83,4.83,0,0,0,1.19-.5l2.8,2.9a8.43,8.43,0,0,1-4,1.72Zm0-9.5v-4.1a8.4,8.4,0,0,1,4,1.72l-2.8,2.91A4.9,4.9,0,0,0,31.64,51Zm-2.38,0a4.84,4.84,0,0,0-1.21.53l-2.8-2.9a8.24,8.24,0,0,1,4-1.73Zm-4,11.9,2.8-2.9a5,5,0,0,0,1.19.5v4.11A8.42,8.42,0,0,1,25.27,62.88ZM21.92,57h3.95a5.17,5.17,0,0,0,.52,1.23l-2.82,2.93A9,9,0,0,1,21.92,57Zm3.95-2.47H21.92a9,9,0,0,1,1.64-4.16l2.81,2.91a5,5,0,0,0-.5,1.26Z"/><path class="cls-14" d="M0,39.94.1,42.5a16.71,16.71,0,0,0,8.31,14l4.75,2.7h1.13a18.13,18.13,0,0,1-.28-2c0-.49-.07-1-.07-1.47,0-9.44,7.41-17.13,16.51-17.13S47,46.28,47,55.72a18.32,18.32,0,0,1-.14,2.16c0,.41-.13.8-.2,1.2L130,58.9a16,16,0,0,1-.23-1.71c0-.49-.07-1-.07-1.47,0-9.44,7.41-17.13,16.51-17.13s16.51,7.69,16.51,17.13a18.32,18.32,0,0,1-.14,2.16c0,.16-.06.32-.08.49l2.87-.68a11.48,11.48,0,0,0,8.61-12.38c-.39-4.16-1.48-8.77-4.08-12.28C162.41,23,131.31,18.84,131.31,18.84S113.4,9,95.78,4c-28.52-7.95-64.54-2.1-76.16.17a4.86,4.86,0,0,0-3.86,4.73h0L6,20.17A8.94,8.94,0,0,0,3.82,26v8.27L1.19,36.93A4,4,0,0,0,0,39.94Zm113.78-14.7L62,21V5.37c32.31-1.14,51.62,9.34,51.62,9.34L114.92,20C113.5,21.88,113.78,25.24,113.78,25.24ZM28.83,14.66a3,3,0,0,1-.52-2.79,2.82,2.82,0,0,1,2-1.91,154.22,154.22,0,0,1,26-4.26V20.54L32,18.54Z"/></g></g></svg>