<svg xmlns="http://www.w3.org/2000/svg" viewBox="0 0 35.18 29.41"><defs><style>.cls-1{fill:#fff;}</style></defs><title>Asset 41</title><g id="Layer_2" data-name="Layer 2"><g id="Layer_1-2" data-name="Layer 1"><path class="cls-1" d="M30.4,0H4.78A4.78,4.78,0,0,0,0,4.78V24.63a4.78,4.78,0,0,0,4.78,4.78H30.4a4.78,4.78,0,0,0,4.78-4.78V4.78A4.78,4.78,0,0,0,30.4,0ZM1.77,4.78a3,3,0,0,1,3-3H26.32a3,3,0,0,1,3,3v3a28.89,28.89,0,0,0-3.62,0,6.9,6.9,0,0,0-6.12,7.22,7,7,0,0,0,6.92,6.59c.94,0,1.87,0,2.82,0v3a3,3,0,0,1-3,3H4.78a3,3,0,0,1-3-3Zm31.64,3H31.1v-3a4.77,4.77,0,0,0-1.07-3h.37a3,3,0,0,1,3,3ZM31,19.67c-.53,0-1.06,0-1.59,0-1.18,0-2.36,0-3.53-.1a4.83,4.83,0,0,1-4.35-4.87,4.86,4.86,0,0,1,4.35-5c1.17-.11,2.35-.13,3.53-.13l1.59,0h1.67a6.18,6.18,0,0,1,.73,0v9.93C32.61,19.64,31.81,19.66,31,19.67Zm.09,5v-3h2.31v3a3,3,0,0,1-3,3H30A4.77,4.77,0,0,0,31.1,24.63Z"/><path class="cls-1" d="M26.59,11.74a2.95,2.95,0,1,0,2.83,3.65,3.3,3.3,0,0,0,.08-.64,3.57,3.57,0,0,0-.08-.74A2.9,2.9,0,0,0,26.59,11.74Zm0,4.34A1.41,1.41,0,1,1,28,14.67,1.41,1.41,0,0,1,26.55,16.08Z"/></g></g></svg>