<svg xmlns="http://www.w3.org/2000/svg" viewBox="0 0 40.78 23.67"><defs><style>.cls-1{fill:#fff;}</style></defs><title>Asset 44</title><g id="Layer_2" data-name="Layer 2"><g id="Layer_1-2" data-name="Layer 1"><path class="cls-1" d="M31.75,5.84a.82.82,0,0,0,.77.53.93.93,0,0,0,.29,0,.83.83,0,0,0,.48-1.07l-.88-2.31a.83.83,0,0,0-1.55.59Z"/><path class="cls-1" d="M33.75,9.61a7.45,7.45,0,0,0-1.65.2l-2.34-6.2a.5.5,0,0,0-.09-.23l-1.11-3h0a.43.43,0,0,0,0-.07l0,0,0,0-.05,0,0,0-.06,0-.06,0a.09.09,0,0,0-.05,0l-.07,0h-3.8a.66.66,0,0,0-.66.66.65.65,0,0,0,.66.66h3.15l.65,1.75H18l0,0-.08,0-.05,0-.06,0,0,0-.06,0,0,0,0,.05-.06.1h0L16.48,6H5.93a.66.66,0,0,0,0,1.32h6L17.75,16H14a7,7,0,1,0,0,1.32h8.56l.15,0h0l.1,0,.05,0,.08-.06,0,0a.52.52,0,0,0,.1-.11h0L29.69,7.2l1.16,3a7,7,0,1,0,2.9-.63ZM7,17.3h4.74a4.83,4.83,0,1,1,0-1.32H7A.66.66,0,1,0,7,17.3ZM22.24,16H19.33L13.53,7.3H28ZM29.16,6H17.92l.65-1.58H28.64L29.22,6Zm4.59,15.48a4.82,4.82,0,0,1-2.11-9.15l1.49,3.91a.68.68,0,0,0,.62.42.67.67,0,0,0,.24,0,.66.66,0,0,0,.38-.85L32.9,11.9a4.71,4.71,0,0,1,.85-.09,4.83,4.83,0,0,1,0,9.66Z"/></g></g></svg>