<svg xmlns="http://www.w3.org/2000/svg" viewBox="0 0 1900.64 365.54"><defs><style>.cls-1,.cls-16,.cls-2,.cls-3,.cls-4,.cls-7{fill:none;}.cls-1,.cls-2,.cls-4,.cls-5{stroke:#666;}.cls-1,.cls-16,.cls-2,.cls-7{stroke-miterlimit:10;}.cls-1{stroke-dasharray:12;}.cls-3,.cls-7,.cls-8{stroke:#ec1c24;}.cls-3,.cls-4,.cls-5,.cls-8{stroke-linecap:round;stroke-linejoin:round;}.cls-17,.cls-5,.cls-8{fill:#fff;}.cls-6{fill:#e6e6e6;}.cls-9{fill:#4f9e80;}.cls-10{fill:#a7745d;}.cls-11{fill:#974c31;}.cls-12{fill:#e6734a;}.cls-13{fill:#2f3035;}.cls-14{fill:#f8ac8b;}.cls-15,.cls-18{fill:#231f20;stroke:#231f20;}.cls-15,.cls-17,.cls-18{stroke-miterlimit:1;}.cls-15{stroke-width:0.5px;}.cls-16{stroke:#d17b68;stroke-width:0.2px;}.cls-17{stroke:#fff;}.cls-17,.cls-18{stroke-width:0.3px;}.cls-19{fill:#379173;}.cls-20{fill:#287658;}.cls-21{fill:#020202;}.cls-22{fill:#db0a16;}</style></defs><title>Asset 48</title><g id="Layer_2" data-name="Layer 2"><g id="Layer_1-2" data-name="Layer 1"><line class="cls-1" x1="7.33" y1="344.13" x2="952.64" y2="344.13"/><line class="cls-2" x1="7.33" y1="365.04" x2="952.64" y2="365.04"/><line class="cls-3" x1="940.26" y1="149.67" x2="829.84" y2="149.67"/><line class="cls-4" x1="940.26" y1="166.79" x2="829.84" y2="166.79"/><line class="cls-4" x1="940.26" y1="183.92" x2="829.84" y2="183.92"/><line class="cls-3" x1="940.26" y1="201.04" x2="829.84" y2="201.04"/><line class="cls-4" x1="940.26" y1="218.17" x2="829.84" y2="218.17"/><line class="cls-4" x1="940.26" y1="235.29" x2="829.84" y2="235.29"/><line class="cls-3" x1="940.26" y1="252.42" x2="829.84" y2="252.42"/><line class="cls-4" x1="940.26" y1="269.55" x2="829.84" y2="269.55"/><line class="cls-4" x1="940.26" y1="286.67" x2="829.84" y2="286.67"/><line class="cls-3" x1="940.26" y1="303.8" x2="829.84" y2="303.8"/><rect class="cls-4" x="822.28" y="132.37" width="123.56" height="193.75"/><rect class="cls-5" x="763.59" y="208.13" width="88.18" height="117.99"/><line class="cls-4" x1="847.78" y1="218.66" x2="768.98" y2="218.66"/><line class="cls-4" x1="847.78" y1="229.09" x2="768.98" y2="229.09"/><line class="cls-3" x1="847.78" y1="239.52" x2="768.98" y2="239.52"/><line class="cls-4" x1="847.78" y1="249.95" x2="768.98" y2="249.95"/><line class="cls-4" x1="847.78" y1="260.38" x2="768.98" y2="260.38"/><line class="cls-4" x1="847.78" y1="270.81" x2="768.98" y2="270.81"/><line class="cls-3" x1="847.78" y1="281.24" x2="768.98" y2="281.24"/><line class="cls-4" x1="847.78" y1="291.67" x2="768.98" y2="291.67"/><line class="cls-4" x1="847.78" y1="302.1" x2="768.98" y2="302.1"/><line class="cls-4" x1="847.78" y1="312.53" x2="768.98" y2="312.53"/><rect class="cls-4" x="118.43" y="82.74" width="92.47" height="242.6"/><rect class="cls-3" x="126.47" y="89.21" width="8.64" height="8.64"/><rect class="cls-6" x="150.02" y="89.21" width="8.64" height="8.64"/><rect class="cls-4" x="173.84" y="89.21" width="8.64" height="8.64"/><rect class="cls-4" x="195.35" y="89.21" width="8.64" height="8.64"/><rect class="cls-4" x="126.47" y="106.93" width="8.64" height="8.64"/><rect class="cls-4" x="150.02" y="106.93" width="8.64" height="8.64"/><rect class="cls-6" x="173.84" y="106.93" width="8.64" height="8.64"/><rect class="cls-3" x="195.35" y="106.93" width="8.64" height="8.64"/><rect class="cls-2" x="126.47" y="124.64" width="8.64" height="8.64"/><rect class="cls-7" x="150.02" y="124.64" width="8.64" height="8.64"/><rect class="cls-2" x="173.84" y="124.64" width="8.64" height="8.64"/><rect class="cls-6" x="195.35" y="124.64" width="8.64" height="8.64"/><rect class="cls-6" x="126.47" y="142.36" width="8.64" height="8.64"/><rect class="cls-2" x="150.02" y="142.36" width="8.64" height="8.64"/><rect class="cls-7" x="173.84" y="142.36" width="8.64" height="8.64"/><rect class="cls-2" x="195.35" y="142.36" width="8.64" height="8.64"/><rect class="cls-2" x="126.47" y="160.08" width="8.64" height="8.64"/><rect class="cls-7" x="150.02" y="160.08" width="8.64" height="8.64"/><rect class="cls-6" x="173.84" y="160.08" width="8.64" height="8.64"/><rect class="cls-2" x="195.35" y="160.08" width="8.64" height="8.64"/><rect class="cls-7" x="126.47" y="177.79" width="8.64" height="8.64"/><rect class="cls-6" x="150.02" y="177.79" width="8.64" height="8.64"/><rect class="cls-2" x="173.84" y="177.79" width="8.64" height="8.64"/><rect class="cls-2" x="195.35" y="177.79" width="8.64" height="8.64"/><rect class="cls-2" x="126.47" y="195.51" width="8.64" height="8.64"/><rect class="cls-2" x="150.02" y="195.51" width="8.64" height="8.64"/><rect class="cls-6" x="173.84" y="195.51" width="8.64" height="8.64"/><rect class="cls-7" x="195.35" y="195.51" width="8.64" height="8.64"/><rect class="cls-6" x="126.47" y="213.22" width="8.64" height="8.65"/><rect class="cls-7" x="150.02" y="213.22" width="8.64" height="8.65"/><rect class="cls-2" x="173.84" y="213.22" width="8.64" height="8.65"/><rect class="cls-2" x="195.35" y="213.22" width="8.64" height="8.65"/><rect class="cls-2" x="126.47" y="230.94" width="8.64" height="8.64"/><rect class="cls-2" x="150.02" y="230.94" width="8.64" height="8.64"/><rect class="cls-6" x="173.84" y="230.94" width="8.64" height="8.64"/><rect class="cls-2" x="195.35" y="230.94" width="8.64" height="8.64"/><rect class="cls-2" x="126.47" y="248.66" width="8.64" height="8.64"/><rect class="cls-7" x="150.02" y="248.66" width="8.64" height="8.64"/><rect class="cls-2" x="173.84" y="248.66" width="8.64" height="8.64"/><rect class="cls-6" x="195.35" y="248.66" width="8.64" height="8.64"/><rect class="cls-2" x="126.47" y="266.37" width="8.64" height="8.64"/><rect class="cls-6" x="150.02" y="266.37" width="8.64" height="8.64"/><rect class="cls-2" x="173.84" y="266.37" width="8.64" height="8.64"/><rect class="cls-7" x="195.35" y="266.37" width="8.64" height="8.64"/><rect class="cls-7" x="126.47" y="284.09" width="8.64" height="8.64"/><rect class="cls-2" x="150.02" y="284.09" width="8.64" height="8.64"/><rect class="cls-6" x="173.84" y="284.09" width="8.64" height="8.64"/><rect class="cls-2" x="195.35" y="284.09" width="8.64" height="8.64"/><rect class="cls-2" x="126.47" y="301.8" width="8.64" height="8.64"/><rect class="cls-2" x="150.02" y="301.8" width="8.64" height="8.64"/><rect class="cls-7" x="173.84" y="301.8" width="8.64" height="8.64"/><rect class="cls-6" x="195.35" y="301.8" width="8.64" height="8.64"/><line class="cls-4" x1="129.18" y1="35.88" x2="129.18" y2="82.74"/><line class="cls-4" x1="210.9" y1="34.43" x2="118.43" y2="34.43"/><line class="cls-3" x1="138.23" y1="35.88" x2="138.23" y2="82.74"/><line class="cls-4" x1="148.41" y1="35.88" x2="148.41" y2="82.74"/><line class="cls-3" x1="158.6" y1="35.88" x2="158.6" y2="82.74"/><line class="cls-4" x1="168.79" y1="35.88" x2="168.79" y2="82.74"/><line class="cls-4" x1="178.97" y1="35.88" x2="178.97" y2="82.74"/><line class="cls-3" x1="189.15" y1="35.88" x2="189.15" y2="82.74"/><line class="cls-4" x1="199.34" y1="35.88" x2="199.34" y2="82.74"/><polygon class="cls-4" points="189.16 23.05 189.16 12.75 138.23 12.75 138.23 23.05 129.18 23.05 129.18 34.13 199.67 34.13 199.67 23.05 189.16 23.05"/><path class="cls-4" d="M.5,267.54v57.74H36.41V308.92c0-9.58,7.2-17.35,16.08-17.35s16.09,7.77,16.09,17.35v16.36h35.91V267.54Z"/><rect class="cls-4" x="8" y="252.34" width="90.32" height="15.2"/><path class="cls-4" d="M90,222.1c0-36.79-16.8-66.62-37.52-66.62S15,185.31,15,222.1,90,258.89,90,222.1Z"/><rect class="cls-5" x="14.97" y="221.21" width="75.05" height="31.42"/><path class="cls-8" d="M26.23,209a7.84,7.84,0,0,1,8-7.62h0a7.84,7.84,0,0,1,8,7.62v9.05c0,4.2-16.08,4.2-16.08,0Z"/><path class="cls-6" d="M21.41,240.13a7.83,7.83,0,0,1,8-7.61h0a7.84,7.84,0,0,1,8,7.61v9.06c0,4.2-16.08,4.2-16.08,0Z"/><path class="cls-8" d="M44.19,240.43a7.83,7.83,0,0,1,8-7.61h0a7.83,7.83,0,0,1,8,7.61v9c0,4.21-16.08,4.21-16.08,0Z"/><path class="cls-6" d="M68.58,240.43a7.83,7.83,0,0,1,8-7.61h0a7.83,7.83,0,0,1,8,7.61v9c0,4.21-16.08,4.21-16.08,0Z"/><path class="cls-8" d="M61.61,209a7.84,7.84,0,0,1,8-7.62h0a7.84,7.84,0,0,1,8,7.62v9.05c0,4.2-16.08,4.2-16.08,0Z"/><line class="cls-4" x1="52.23" y1="135.04" x2="52.23" y2="155.54"/><line class="cls-4" x1="47.27" y1="139.06" x2="57.25" y2="139.06"/><line class="cls-3" x1="0.5" y1="274.14" x2="104.49" y2="274.14"/><line class="cls-4" x1="0.5" y1="280.57" x2="104.49" y2="280.57"/><line class="cls-4" x1="0.5" y1="287.01" x2="104.49" y2="287.01"/><line class="cls-3" x1="0.5" y1="293.44" x2="44.19" y2="293.44"/><line class="cls-4" x1="0.5" y1="299.87" x2="37.49" y2="299.87"/><line class="cls-4" x1="0.5" y1="306.3" x2="36.41" y2="306.3"/><line class="cls-4" x1="0.5" y1="312.73" x2="36.41" y2="312.73"/><line class="cls-4" x1="0.5" y1="319.17" x2="36.41" y2="319.17"/><line class="cls-3" x1="60.8" y1="293.44" x2="104.49" y2="293.44"/><line class="cls-4" x1="67.24" y1="299.87" x2="104.22" y2="299.87"/><line class="cls-4" x1="68.85" y1="306.3" x2="104.22" y2="306.3"/><line class="cls-4" x1="68.85" y1="312.73" x2="104.22" y2="312.73"/><line class="cls-4" x1="68.85" y1="319.17" x2="104.22" y2="319.17"/><rect class="cls-4" x="336.62" y="192.88" width="76.96" height="18.85"/><polyline class="cls-4" points="255.82 262.03 222.05 262.12 222.05 324.51"/><polyline class="cls-4" points="491.41 262.03 525.18 262.12 525.18 324.51"/><rect class="cls-6" x="259.84" y="299.94" width="11.26" height="21.8"/><rect class="cls-3" x="259.84" y="274.62" width="11.26" height="12.63"/><rect class="cls-4" x="304.87" y="274.62" width="11.26" height="12.63"/><rect class="cls-6" x="349.9" y="274.62" width="11.26" height="12.63"/><rect class="cls-3" x="394.92" y="274.62" width="11.26" height="12.63"/><rect class="cls-6" x="439.95" y="274.62" width="11.26" height="12.63"/><rect class="cls-4" x="484.98" y="274.62" width="11.26" height="12.63"/><rect class="cls-6" x="304.87" y="299.94" width="11.26" height="21.8"/><rect class="cls-3" x="349.9" y="299.94" width="11.26" height="21.8"/><rect class="cls-6" x="394.92" y="299.94" width="11.26" height="21.8"/><rect class="cls-3" x="439.95" y="299.94" width="11.26" height="21.8"/><rect class="cls-6" x="484.98" y="299.94" width="11.26" height="21.8"/><line class="cls-4" x1="275.96" y1="262.12" x2="469.69" y2="262.12"/><line class="cls-4" x1="275.96" y1="255.88" x2="469.69" y2="255.88"/><line class="cls-3" x1="282.32" y1="240.97" x2="282.32" y2="255.85"/><line class="cls-4" x1="288.57" y1="240.97" x2="288.57" y2="255.85"/><line class="cls-4" x1="294.82" y1="240.97" x2="294.82" y2="255.85"/><line class="cls-3" x1="301.07" y1="240.97" x2="301.07" y2="255.85"/><line class="cls-4" x1="307.32" y1="240.97" x2="307.32" y2="255.85"/><line class="cls-4" x1="313.57" y1="240.97" x2="313.57" y2="255.85"/><line class="cls-4" x1="319.82" y1="240.97" x2="319.82" y2="255.85"/><line class="cls-3" x1="326.06" y1="240.97" x2="326.06" y2="255.85"/><line class="cls-4" x1="420.1" y1="240.97" x2="420.1" y2="255.85"/><line class="cls-3" x1="426.35" y1="240.97" x2="426.35" y2="255.85"/><line class="cls-4" x1="432.6" y1="240.97" x2="432.6" y2="255.85"/><line class="cls-3" x1="438.85" y1="240.97" x2="438.85" y2="255.85"/><line class="cls-4" x1="445.1" y1="240.97" x2="445.1" y2="255.85"/><line class="cls-3" x1="451.35" y1="240.97" x2="451.35" y2="255.85"/><line class="cls-4" x1="457.6" y1="240.97" x2="457.6" y2="255.85"/><line class="cls-4" x1="463.85" y1="240.97" x2="463.85" y2="255.85"/><path class="cls-4" d="M336.62,183.32a38.56,38.56,0,0,1,38.48-38.64h0a38.56,38.56,0,0,1,38.48,38.64Z"/><path class="cls-5" d="M334.58,239.76a38.57,38.57,0,0,1,38.49-38.65h0a38.56,38.56,0,0,1,38.48,38.65Z"/><path class="cls-4" d="M275.59,238.9a28.34,28.34,0,0,1,28.1-28.57h0a28.34,28.34,0,0,1,28.1,28.57Z"/><path class="cls-4" d="M413.61,238.62c0-16,12.58-28.92,28.1-28.92h0c15.53,0,28.11,13,28.11,28.92Z"/><line class="cls-4" x1="242.55" y1="182.18" x2="242.55" y2="261.62"/><line class="cls-4" x1="249.52" y1="181.79" x2="249.52" y2="261.24"/><line class="cls-4" x1="255.41" y1="181.79" x2="255.41" y2="261.24"/><line class="cls-4" x1="242.49" y1="146.31" x2="242.49" y2="180.36"/><line class="cls-4" x1="249.46" y1="146.15" x2="249.46" y2="180.19"/><line class="cls-4" x1="255.35" y1="146.15" x2="255.35" y2="180.19"/><polygon class="cls-4" points="257.5 181.83 240.34 181.75 240.34 182.13 257.5 182.22 257.5 181.83"/><rect class="cls-4" x="248.83" y="138.67" width="0.38" height="13.08" transform="translate(102.56 393.5) rotate(-89.71)"/><rect class="cls-4" x="244.2" y="124.51" width="9.94" height="20.48"/><line class="cls-4" x1="248.92" y1="111.92" x2="249.02" y2="124.51"/><line class="cls-4" x1="259.36" y1="216.49" x2="259.36" y2="234.58"/><line class="cls-4" x1="266.33" y1="216.4" x2="266.33" y2="234.5"/><line class="cls-4" x1="272.22" y1="216.4" x2="272.22" y2="234.5"/><polygon class="cls-4" points="272.44 215.82 259.36 215.78 259.36 215.99 272.44 216.02 272.44 215.82"/><rect class="cls-4" x="261.07" y="204.9" width="9.94" height="10.88"/><line class="cls-4" x1="265.79" y1="198.2" x2="265.9" y2="204.9"/><line class="cls-4" x1="255.82" y1="235.63" x2="275.59" y2="235.63"/><line class="cls-4" x1="491.27" y1="181.75" x2="491.27" y2="261.19"/><line class="cls-4" x1="498.24" y1="181.37" x2="498.24" y2="260.81"/><line class="cls-4" x1="504.14" y1="181.37" x2="504.14" y2="260.81"/><line class="cls-4" x1="491.21" y1="145.88" x2="491.21" y2="179.93"/><line class="cls-4" x1="498.18" y1="145.72" x2="498.18" y2="179.76"/><line class="cls-4" x1="504.08" y1="145.72" x2="504.08" y2="179.76"/><polygon class="cls-4" points="506.23 181.41 489.06 181.32 489.06 181.7 506.23 181.79 506.23 181.41"/><rect class="cls-4" x="497.56" y="138.24" width="0.38" height="13.08" transform="translate(350.46 641.8) rotate(-89.71)"/><rect class="cls-4" x="492.92" y="124.08" width="9.94" height="20.48"/><line class="cls-4" x1="497.64" y1="111.49" x2="497.75" y2="124.08"/><line class="cls-4" x1="474.38" y1="215.54" x2="474.38" y2="233.64"/><line class="cls-4" x1="481.35" y1="215.45" x2="481.35" y2="233.55"/><line class="cls-4" x1="487.24" y1="215.45" x2="487.24" y2="233.55"/><polygon class="cls-4" points="487.46 214.87 474.38 214.84 474.38 215.04 487.46 215.07 487.46 214.87"/><rect class="cls-4" x="476.09" y="203.95" width="9.94" height="10.88"/><line class="cls-4" x1="480.81" y1="197.26" x2="480.92" y2="203.95"/><line class="cls-4" x1="419.81" y1="193.47" x2="419.81" y2="211.25"/><line class="cls-4" x1="432.68" y1="193.39" x2="432.68" y2="211.16"/><polygon class="cls-4" points="432.89 192.81 419.81 192.78 419.81 192.98 432.89 193.01 432.89 192.81"/><rect class="cls-4" x="421.52" y="182.09" width="9.94" height="10.69"/><line class="cls-4" x1="426.25" y1="175.52" x2="426.35" y2="182.09"/><line class="cls-4" x1="316.31" y1="193.21" x2="316.31" y2="211.31"/><line class="cls-4" x1="329.17" y1="193.12" x2="329.17" y2="211.22"/><polygon class="cls-4" points="329.39 192.54 316.31 192.5 316.31 192.71 329.39 192.74 329.39 192.54"/><rect class="cls-4" x="318.02" y="181.62" width="9.94" height="10.88"/><line class="cls-4" x1="322.74" y1="174.92" x2="322.85" y2="181.62"/><line class="cls-4" x1="470.84" y1="234.69" x2="490.61" y2="234.69"/><line class="cls-4" x1="336.73" y1="188.11" x2="413.58" y2="188.11"/><line class="cls-4" x1="313.57" y1="211.9" x2="336.62" y2="211.9"/><line class="cls-4" x1="412.96" y1="211.73" x2="431.61" y2="211.73"/><line class="cls-4" x1="303.69" y1="197.26" x2="303.69" y2="210.33"/><line class="cls-4" x1="443.49" y1="196.62" x2="443.49" y2="209.69"/><line class="cls-4" x1="376.3" y1="131.61" x2="376.3" y2="144.68"/><polyline class="cls-4" points="560.16 8.13 567.88 14.38 591.02 14.38 600.79 14.38"/><line class="cls-4" x1="591.02" y1="14.38" x2="580.48" y2="3.54"/><line class="cls-4" x1="654.24" y1="208.06" x2="743.36" y2="208.06"/><line class="cls-4" x1="629.74" y1="226.82" x2="655.77" y2="226.82"/><line class="cls-4" x1="687.97" y1="189.4" x2="714" y2="189.4"/><line class="cls-4" x1="685.28" y1="223.34" x2="725.67" y2="223.34"/><line class="cls-4" x1="285.71" y1="19.16" x2="374.83" y2="19.16"/><line class="cls-4" x1="261.21" y1="37.92" x2="287.24" y2="37.92"/><line class="cls-4" x1="319.44" y1="0.5" x2="345.47" y2="0.5"/><line class="cls-4" x1="316.75" y1="34.44" x2="357.14" y2="34.44"/><line class="cls-4" x1="819.45" y1="49.68" x2="908.58" y2="49.68"/><line class="cls-4" x1="794.96" y1="68.44" x2="820.98" y2="68.44"/><line class="cls-4" x1="853.18" y1="31.02" x2="879.21" y2="31.02"/><line class="cls-4" x1="850.5" y1="64.96" x2="890.88" y2="64.96"/><line class="cls-4" x1="646.13" y1="260.7" x2="583.95" y2="326.18"/><line class="cls-4" x1="646.13" y1="260.7" x2="636.48" y2="326.01"/><line class="cls-4" x1="646.13" y1="260.7" x2="726.97" y2="326.12"/><line class="cls-4" x1="594.14" y1="261.55" x2="543.24" y2="326.18"/><line class="cls-4" x1="594.14" y1="261.55" x2="607.44" y2="301.44"/><line class="cls-4" x1="594.14" y1="261.55" x2="626.38" y2="281.49"/><line class="cls-4" x1="711.08" y1="261.55" x2="761.98" y2="326.18"/><line class="cls-4" x1="711.08" y1="261.55" x2="697.78" y2="301.44"/><line class="cls-4" x1="711.08" y1="261.55" x2="675.68" y2="284.94"/><line class="cls-4" x1="0.5" y1="325.28" x2="945.84" y2="326.12"/><rect class="cls-4" x="413.74" y="240.97" width="55.94" height="14.88"/><rect class="cls-4" x="275.96" y="240.97" width="55.95" height="14.88"/><line class="cls-3" x1="1885.6" y1="149.67" x2="1775.18" y2="149.67"/><line class="cls-4" x1="1885.6" y1="166.79" x2="1775.18" y2="166.79"/><line class="cls-4" x1="1885.6" y1="183.92" x2="1775.18" y2="183.92"/><line class="cls-3" x1="1885.6" y1="201.04" x2="1775.18" y2="201.04"/><line class="cls-4" x1="1885.6" y1="218.17" x2="1775.18" y2="218.17"/><line class="cls-4" x1="1885.6" y1="235.29" x2="1775.18" y2="235.29"/><line class="cls-3" x1="1885.6" y1="252.42" x2="1775.18" y2="252.42"/><line class="cls-4" x1="1885.6" y1="269.55" x2="1775.18" y2="269.55"/><line class="cls-4" x1="1885.6" y1="286.67" x2="1775.18" y2="286.67"/><line class="cls-3" x1="1885.6" y1="303.8" x2="1775.18" y2="303.8"/><rect class="cls-4" x="1767.62" y="132.37" width="123.56" height="193.75"/><rect class="cls-5" x="1708.93" y="208.13" width="88.18" height="117.99"/><line class="cls-4" x1="1793.12" y1="218.66" x2="1714.32" y2="218.66"/><line class="cls-4" x1="1793.12" y1="229.09" x2="1714.32" y2="229.09"/><line class="cls-3" x1="1793.12" y1="239.52" x2="1714.32" y2="239.52"/><line class="cls-4" x1="1793.12" y1="249.95" x2="1714.32" y2="249.95"/><line class="cls-4" x1="1793.12" y1="260.38" x2="1714.32" y2="260.38"/><line class="cls-4" x1="1793.12" y1="270.81" x2="1714.32" y2="270.81"/><line class="cls-3" x1="1793.12" y1="281.24" x2="1714.32" y2="281.24"/><line class="cls-4" x1="1793.12" y1="291.67" x2="1714.32" y2="291.67"/><line class="cls-4" x1="1793.12" y1="302.1" x2="1714.32" y2="302.1"/><line class="cls-4" x1="1793.12" y1="312.53" x2="1714.32" y2="312.53"/><rect class="cls-4" x="1063.77" y="82.74" width="92.47" height="242.6"/><rect class="cls-3" x="1071.81" y="89.21" width="8.64" height="8.64"/><rect class="cls-6" x="1095.36" y="89.21" width="8.64" height="8.64"/><rect class="cls-4" x="1119.18" y="89.21" width="8.64" height="8.64"/><rect class="cls-4" x="1140.69" y="89.21" width="8.64" height="8.64"/><rect class="cls-4" x="1071.81" y="106.93" width="8.64" height="8.64"/><rect class="cls-4" x="1095.36" y="106.93" width="8.64" height="8.64"/><rect class="cls-6" x="1119.18" y="106.93" width="8.64" height="8.64"/><rect class="cls-3" x="1140.69" y="106.93" width="8.64" height="8.64"/><rect class="cls-2" x="1071.81" y="124.64" width="8.64" height="8.64"/><rect class="cls-7" x="1095.36" y="124.64" width="8.64" height="8.64"/><rect class="cls-2" x="1119.18" y="124.64" width="8.64" height="8.64"/><rect class="cls-6" x="1140.69" y="124.64" width="8.64" height="8.64"/><rect class="cls-6" x="1071.81" y="142.36" width="8.64" height="8.64"/><rect class="cls-2" x="1095.36" y="142.36" width="8.64" height="8.64"/><rect class="cls-7" x="1119.18" y="142.36" width="8.64" height="8.64"/><rect class="cls-2" x="1140.69" y="142.36" width="8.64" height="8.64"/><rect class="cls-2" x="1071.81" y="160.08" width="8.64" height="8.64"/><rect class="cls-7" x="1095.36" y="160.08" width="8.64" height="8.64"/><rect class="cls-6" x="1119.18" y="160.08" width="8.64" height="8.64"/><rect class="cls-2" x="1140.69" y="160.08" width="8.64" height="8.64"/><rect class="cls-7" x="1071.81" y="177.79" width="8.64" height="8.64"/><rect class="cls-6" x="1095.36" y="177.79" width="8.64" height="8.64"/><rect class="cls-2" x="1119.18" y="177.79" width="8.64" height="8.64"/><rect class="cls-2" x="1140.69" y="177.79" width="8.64" height="8.64"/><rect class="cls-2" x="1071.81" y="195.51" width="8.64" height="8.64"/><rect class="cls-2" x="1095.36" y="195.51" width="8.64" height="8.64"/><rect class="cls-6" x="1119.18" y="195.51" width="8.64" height="8.64"/><rect class="cls-7" x="1140.69" y="195.51" width="8.64" height="8.64"/><rect class="cls-6" x="1071.81" y="213.22" width="8.64" height="8.65"/><rect class="cls-7" x="1095.36" y="213.22" width="8.64" height="8.65"/><rect class="cls-2" x="1119.18" y="213.22" width="8.64" height="8.65"/><rect class="cls-2" x="1140.69" y="213.22" width="8.64" height="8.65"/><rect class="cls-2" x="1071.81" y="230.94" width="8.64" height="8.64"/><rect class="cls-2" x="1095.36" y="230.94" width="8.64" height="8.64"/><rect class="cls-6" x="1119.18" y="230.94" width="8.64" height="8.64"/><rect class="cls-2" x="1140.69" y="230.94" width="8.64" height="8.64"/><rect class="cls-2" x="1071.81" y="248.66" width="8.64" height="8.64"/><rect class="cls-7" x="1095.36" y="248.66" width="8.64" height="8.64"/><rect class="cls-2" x="1119.18" y="248.66" width="8.64" height="8.64"/><rect class="cls-6" x="1140.69" y="248.66" width="8.64" height="8.64"/><rect class="cls-2" x="1071.81" y="266.37" width="8.64" height="8.64"/><rect class="cls-6" x="1095.36" y="266.37" width="8.64" height="8.64"/><rect class="cls-2" x="1119.18" y="266.37" width="8.64" height="8.64"/><rect class="cls-7" x="1140.69" y="266.37" width="8.64" height="8.64"/><rect class="cls-7" x="1071.81" y="284.09" width="8.64" height="8.64"/><rect class="cls-2" x="1095.36" y="284.09" width="8.64" height="8.64"/><rect class="cls-6" x="1119.18" y="284.09" width="8.64" height="8.64"/><rect class="cls-2" x="1140.69" y="284.09" width="8.64" height="8.64"/><rect class="cls-2" x="1071.81" y="301.8" width="8.64" height="8.64"/><rect class="cls-2" x="1095.36" y="301.8" width="8.64" height="8.64"/><rect class="cls-7" x="1119.18" y="301.8" width="8.64" height="8.64"/><rect class="cls-6" x="1140.69" y="301.8" width="8.64" height="8.64"/><line class="cls-4" x1="1074.52" y1="35.88" x2="1074.52" y2="82.74"/><line class="cls-4" x1="1156.24" y1="34.43" x2="1063.77" y2="34.43"/><line class="cls-3" x1="1083.57" y1="35.88" x2="1083.57" y2="82.74"/><line class="cls-4" x1="1093.76" y1="35.88" x2="1093.76" y2="82.74"/><line class="cls-3" x1="1103.94" y1="35.88" x2="1103.94" y2="82.74"/><line class="cls-4" x1="1114.13" y1="35.88" x2="1114.13" y2="82.74"/><line class="cls-4" x1="1124.31" y1="35.88" x2="1124.31" y2="82.74"/><line class="cls-3" x1="1134.5" y1="35.88" x2="1134.5" y2="82.74"/><line class="cls-4" x1="1144.68" y1="35.88" x2="1144.68" y2="82.74"/><polygon class="cls-4" points="1134.5 23.05 1134.5 12.75 1083.57 12.75 1083.57 23.05 1074.52 23.05 1074.52 34.13 1145.02 34.13 1145.02 23.05 1134.5 23.05"/><path class="cls-4" d="M945.84,267.54v57.74h35.91V308.92c0-9.58,7.2-17.35,16.09-17.35s16.08,7.77,16.08,17.35v16.36h35.91V267.54Z"/><rect class="cls-4" x="953.34" y="252.34" width="90.32" height="15.2"/><path class="cls-4" d="M1035.36,222.1c0-36.79-16.8-66.62-37.52-66.62s-37.53,29.83-37.53,66.62S1035.36,258.89,1035.36,222.1Z"/><rect class="cls-5" x="960.31" y="221.21" width="75.05" height="31.42"/><path class="cls-8" d="M971.57,209a7.84,7.84,0,0,1,8-7.62h0a7.84,7.84,0,0,1,8,7.62v9.05c0,4.2-16.08,4.2-16.08,0Z"/><path class="cls-6" d="M966.75,240.13a7.84,7.84,0,0,1,8-7.61h0a7.84,7.84,0,0,1,8,7.61v9.06c0,4.2-16.08,4.2-16.08,0Z"/><path class="cls-8" d="M989.53,240.43a7.83,7.83,0,0,1,8-7.61h0a7.83,7.83,0,0,1,8,7.61v9c0,4.21-16.08,4.21-16.08,0Z"/><path class="cls-6" d="M1013.92,240.43a7.83,7.83,0,0,1,8-7.61h0a7.83,7.83,0,0,1,8,7.61v9c0,4.21-16.08,4.21-16.08,0Z"/><path class="cls-8" d="M1007,209a7.84,7.84,0,0,1,8-7.62h0a7.84,7.84,0,0,1,8,7.62v9.05c0,4.2-16.08,4.2-16.08,0Z"/><line class="cls-4" x1="997.57" y1="135.04" x2="997.57" y2="155.54"/><line class="cls-4" x1="992.61" y1="139.06" x2="1002.59" y2="139.06"/><line class="cls-3" x1="945.84" y1="274.14" x2="1049.83" y2="274.14"/><line class="cls-4" x1="945.84" y1="280.57" x2="1049.83" y2="280.57"/><line class="cls-4" x1="945.84" y1="287.01" x2="1049.83" y2="287.01"/><line class="cls-3" x1="945.84" y1="293.44" x2="989.53" y2="293.44"/><line class="cls-4" x1="945.84" y1="299.87" x2="982.83" y2="299.87"/><line class="cls-4" x1="945.84" y1="306.3" x2="981.75" y2="306.3"/><line class="cls-4" x1="945.84" y1="312.73" x2="981.75" y2="312.73"/><line class="cls-4" x1="945.84" y1="319.17" x2="981.75" y2="319.17"/><line class="cls-3" x1="1006.15" y1="293.44" x2="1049.83" y2="293.44"/><line class="cls-4" x1="1012.58" y1="299.87" x2="1049.57" y2="299.87"/><line class="cls-4" x1="1014.19" y1="306.3" x2="1049.57" y2="306.3"/><line class="cls-4" x1="1014.19" y1="312.73" x2="1049.57" y2="312.73"/><line class="cls-4" x1="1014.19" y1="319.17" x2="1049.57" y2="319.17"/><rect class="cls-4" x="1281.96" y="192.88" width="76.96" height="18.85"/><polyline class="cls-4" points="1201.16 262.03 1167.39 262.12 1167.39 324.51"/><polyline class="cls-4" points="1436.75 262.03 1470.52 262.12 1470.52 324.51"/><rect class="cls-6" x="1205.18" y="299.94" width="11.26" height="21.8"/><rect class="cls-3" x="1205.18" y="274.62" width="11.26" height="12.63"/><rect class="cls-4" x="1250.21" y="274.62" width="11.26" height="12.63"/><rect class="cls-6" x="1295.24" y="274.62" width="11.26" height="12.63"/><rect class="cls-3" x="1340.26" y="274.62" width="11.26" height="12.63"/><rect class="cls-6" x="1385.29" y="274.62" width="11.26" height="12.63"/><rect class="cls-4" x="1430.32" y="274.62" width="11.26" height="12.63"/><rect class="cls-6" x="1250.21" y="299.94" width="11.26" height="21.8"/><rect class="cls-3" x="1295.24" y="299.94" width="11.26" height="21.8"/><rect class="cls-6" x="1340.26" y="299.94" width="11.26" height="21.8"/><rect class="cls-3" x="1385.29" y="299.94" width="11.26" height="21.8"/><rect class="cls-6" x="1430.32" y="299.94" width="11.26" height="21.8"/><line class="cls-4" x1="1221.3" y1="262.12" x2="1415.03" y2="262.12"/><line class="cls-4" x1="1221.3" y1="255.88" x2="1415.03" y2="255.88"/><line class="cls-3" x1="1227.66" y1="240.97" x2="1227.66" y2="255.85"/><line class="cls-4" x1="1233.91" y1="240.97" x2="1233.91" y2="255.85"/><line class="cls-4" x1="1240.16" y1="240.97" x2="1240.16" y2="255.85"/><line class="cls-3" x1="1246.41" y1="240.97" x2="1246.41" y2="255.85"/><line class="cls-4" x1="1252.66" y1="240.97" x2="1252.66" y2="255.85"/><line class="cls-4" x1="1258.91" y1="240.97" x2="1258.91" y2="255.85"/><line class="cls-4" x1="1265.16" y1="240.97" x2="1265.16" y2="255.85"/><line class="cls-3" x1="1271.41" y1="240.97" x2="1271.41" y2="255.85"/><line class="cls-4" x1="1365.44" y1="240.97" x2="1365.44" y2="255.85"/><line class="cls-3" x1="1371.69" y1="240.97" x2="1371.69" y2="255.85"/><line class="cls-4" x1="1377.94" y1="240.97" x2="1377.94" y2="255.85"/><line class="cls-3" x1="1384.19" y1="240.97" x2="1384.19" y2="255.85"/><line class="cls-4" x1="1390.44" y1="240.97" x2="1390.44" y2="255.85"/><line class="cls-3" x1="1396.69" y1="240.97" x2="1396.69" y2="255.85"/><line class="cls-4" x1="1402.94" y1="240.97" x2="1402.94" y2="255.85"/><line class="cls-4" x1="1409.19" y1="240.97" x2="1409.19" y2="255.85"/><path class="cls-4" d="M1282,183.32a38.56,38.56,0,0,1,38.48-38.64h0a38.56,38.56,0,0,1,38.48,38.64Z"/><path class="cls-5" d="M1279.92,239.76a38.57,38.57,0,0,1,38.49-38.65h0a38.56,38.56,0,0,1,38.48,38.65Z"/><path class="cls-4" d="M1220.93,238.9a28.34,28.34,0,0,1,28.1-28.57h0a28.34,28.34,0,0,1,28.1,28.57Z"/><path class="cls-4" d="M1359,238.62c0-16,12.59-28.92,28.11-28.92h0c15.52,0,28.1,13,28.1,28.92Z"/><line class="cls-4" x1="1187.89" y1="182.18" x2="1187.89" y2="261.62"/><line class="cls-4" x1="1194.86" y1="181.79" x2="1194.86" y2="261.24"/><line class="cls-4" x1="1200.75" y1="181.79" x2="1200.75" y2="261.24"/><line class="cls-4" x1="1187.83" y1="146.31" x2="1187.83" y2="180.36"/><line class="cls-4" x1="1194.8" y1="146.15" x2="1194.8" y2="180.19"/><line class="cls-4" x1="1200.69" y1="146.15" x2="1200.69" y2="180.19"/><polygon class="cls-4" points="1202.84 181.83 1185.68 181.75 1185.68 182.13 1202.84 182.22 1202.84 181.83"/><rect class="cls-4" x="1194.18" y="138.67" width="0.38" height="13.08" transform="translate(1043.14 1338.83) rotate(-89.71)"/><rect class="cls-4" x="1189.54" y="124.51" width="9.94" height="20.48"/><line class="cls-4" x1="1194.26" y1="111.92" x2="1194.37" y2="124.51"/><line class="cls-4" x1="1204.7" y1="216.49" x2="1204.7" y2="234.58"/><line class="cls-4" x1="1211.67" y1="216.4" x2="1211.67" y2="234.5"/><line class="cls-4" x1="1217.56" y1="216.4" x2="1217.56" y2="234.5"/><polygon class="cls-4" points="1217.78 215.82 1204.7 215.78 1204.7 215.99 1217.78 216.02 1217.78 215.82"/><rect class="cls-4" x="1206.41" y="204.9" width="9.94" height="10.88"/><line class="cls-4" x1="1211.13" y1="198.2" x2="1211.24" y2="204.9"/><line class="cls-4" x1="1201.16" y1="235.63" x2="1220.93" y2="235.63"/><line class="cls-4" x1="1436.62" y1="181.75" x2="1436.62" y2="261.19"/><line class="cls-4" x1="1443.58" y1="181.37" x2="1443.58" y2="260.81"/><line class="cls-4" x1="1449.48" y1="181.37" x2="1449.48" y2="260.81"/><line class="cls-4" x1="1436.55" y1="145.88" x2="1436.55" y2="179.93"/><line class="cls-4" x1="1443.52" y1="145.72" x2="1443.52" y2="179.76"/><line class="cls-4" x1="1449.42" y1="145.72" x2="1449.42" y2="179.76"/><polygon class="cls-4" points="1451.57 181.41 1434.41 181.32 1434.4 181.7 1451.57 181.79 1451.57 181.41"/><rect class="cls-4" x="1442.9" y="138.24" width="0.38" height="13.08" transform="translate(1291.04 1587.13) rotate(-89.71)"/><rect class="cls-4" x="1438.26" y="124.08" width="9.94" height="20.48"/><line class="cls-4" x1="1442.99" y1="111.49" x2="1443.09" y2="124.08"/><line class="cls-4" x1="1419.72" y1="215.54" x2="1419.72" y2="233.64"/><line class="cls-4" x1="1426.69" y1="215.45" x2="1426.69" y2="233.55"/><line class="cls-4" x1="1432.59" y1="215.45" x2="1432.59" y2="233.55"/><polygon class="cls-4" points="1432.8 214.87 1419.72 214.84 1419.72 215.04 1432.8 215.07 1432.8 214.87"/><rect class="cls-4" x="1421.43" y="203.95" width="9.94" height="10.88"/><line class="cls-4" x1="1426.15" y1="197.26" x2="1426.26" y2="203.95"/><line class="cls-4" x1="1365.15" y1="193.47" x2="1365.15" y2="211.25"/><line class="cls-4" x1="1378.02" y1="193.39" x2="1378.02" y2="211.16"/><polygon class="cls-4" points="1378.23 192.81 1365.15 192.78 1365.15 192.98 1378.23 193.01 1378.23 192.81"/><rect class="cls-4" x="1366.87" y="182.09" width="9.94" height="10.69"/><line class="cls-4" x1="1371.59" y1="175.52" x2="1371.69" y2="182.09"/><line class="cls-4" x1="1261.65" y1="193.21" x2="1261.65" y2="211.31"/><line class="cls-4" x1="1274.52" y1="193.12" x2="1274.52" y2="211.22"/><polygon class="cls-4" points="1274.73 192.54 1261.65 192.5 1261.65 192.71 1274.73 192.74 1274.73 192.54"/><rect class="cls-4" x="1263.36" y="181.62" width="9.94" height="10.88"/><line class="cls-4" x1="1268.08" y1="174.92" x2="1268.19" y2="181.62"/><line class="cls-4" x1="1416.18" y1="234.69" x2="1435.95" y2="234.69"/><line class="cls-4" x1="1282.07" y1="188.11" x2="1358.92" y2="188.11"/><line class="cls-4" x1="1258.91" y1="211.9" x2="1281.96" y2="211.9"/><line class="cls-4" x1="1358.31" y1="211.73" x2="1376.95" y2="211.73"/><line class="cls-4" x1="1249.03" y1="197.26" x2="1249.03" y2="210.33"/><line class="cls-4" x1="1388.83" y1="196.62" x2="1388.83" y2="209.69"/><line class="cls-4" x1="1321.64" y1="131.61" x2="1321.64" y2="144.68"/><polyline class="cls-4" points="1505.51 8.13 1513.22 14.38 1536.36 14.38 1546.13 14.38"/><line class="cls-4" x1="1536.36" y1="14.38" x2="1525.82" y2="3.54"/><line class="cls-4" x1="1599.58" y1="208.06" x2="1688.7" y2="208.06"/><line class="cls-4" x1="1575.08" y1="226.82" x2="1601.11" y2="226.82"/><line class="cls-4" x1="1633.31" y1="189.4" x2="1659.34" y2="189.4"/><line class="cls-4" x1="1630.62" y1="223.34" x2="1671.01" y2="223.34"/><line class="cls-4" x1="1231.05" y1="19.16" x2="1320.17" y2="19.16"/><line class="cls-4" x1="1206.55" y1="37.92" x2="1232.58" y2="37.92"/><line class="cls-4" x1="1264.78" y1="0.5" x2="1290.81" y2="0.5"/><line class="cls-4" x1="1262.09" y1="34.44" x2="1302.48" y2="34.44"/><line class="cls-4" x1="1764.79" y1="49.68" x2="1853.92" y2="49.68"/><line class="cls-4" x1="1740.3" y1="68.44" x2="1766.33" y2="68.44"/><line class="cls-4" x1="1798.52" y1="31.02" x2="1824.55" y2="31.02"/><line class="cls-4" x1="1795.84" y1="64.96" x2="1836.22" y2="64.96"/><line class="cls-4" x1="1591.47" y1="260.7" x2="1529.29" y2="326.18"/><line class="cls-4" x1="1591.47" y1="260.7" x2="1581.82" y2="326.01"/><line class="cls-4" x1="1591.47" y1="260.7" x2="1672.31" y2="326.12"/><line class="cls-4" x1="1539.48" y1="261.55" x2="1488.58" y2="326.18"/><line class="cls-4" x1="1539.48" y1="261.55" x2="1552.78" y2="301.44"/><line class="cls-4" x1="1539.48" y1="261.55" x2="1571.73" y2="281.49"/><line class="cls-4" x1="1656.42" y1="261.55" x2="1707.32" y2="326.18"/><line class="cls-4" x1="1656.42" y1="261.55" x2="1643.12" y2="301.44"/><line class="cls-4" x1="1656.42" y1="261.55" x2="1621.02" y2="284.94"/><line class="cls-4" x1="945.84" y1="325.28" x2="1891.18" y2="326.12"/><rect class="cls-4" x="1359.08" y="240.97" width="55.94" height="14.88"/><rect class="cls-4" x="1221.3" y="240.97" width="55.95" height="14.88"/><line class="cls-1" x1="955.33" y1="344.13" x2="1900.64" y2="344.13"/><line class="cls-2" x1="955.33" y1="365.04" x2="1900.64" y2="365.04"/><path class="cls-9" d="M234.92,308.58s-.77,4.35-2.11,6.29l.61.39,1.51-2.53.1-.61S235.22,308.77,234.92,308.58Z"/><path class="cls-10" d="M232.81,314.94a6.54,6.54,0,0,0-.78,1.42l.1.21,0,1.06.25.11.24-.94.14,0-.19,1h.23l.17-1,.1,0,0,.86.2,0,.27-.87s.61-1.18.08-1.62l-.06-.14-.67-.29Z"/><path class="cls-11" d="M241.5,335.66l-1.12-.1.28,1.45,3.68-.78a1,1,0,0,0-1.33-.61l-1.31.23Z"/><path class="cls-12" d="M230.06,334.77l-1-.58-.4,1.42,3.64.94s.19-.91-.92-1.13l-1.27-.39Z"/><path class="cls-13" d="M239.35,318s0,1.18-.46,1.45c0,0,1.75,9.92,1.9,10.6l.8,5.74h-1.14l-3.69-14.41L230,334.88l-.95-.45,5.55-14.68-.42-1V318S235.28,318.57,239.35,318Z"/><path class="cls-14" d="M233.05,296.87s1.6,2.71,2.2,3v2s.63.93,2.31,0v-.5s3.06,2.09,5.54.27a6.74,6.74,0,0,0,1.19-4v-.15s1.43.23,1.36-1c0,0-1.84-.55-.92-2.71l.13-3.39-.29.07s-1.43,1.62-3,1.51l1.16-2.16s-1.63,2-3.35,2.08l-2,.12s-2.23,1.54-2.23,2.51l-.72,1.54s.88-2.59-.82-3.36c0,0-2.65-1.5-1.93,1.82C231.62,294.6,232.84,296.52,233.05,296.87Z"/><path class="cls-15" d="M234.34,293.53a20.52,20.52,0,0,1,.31,2.64l.07.48s.85-2.56,1.37-2.78a3,3,0,0,0,1.16-1.33s3.56.49,5.21-2h.17a3.75,3.75,0,0,1-1.75,1.87l-.19.08a3.65,3.65,0,0,0,3.63-1.41l.16-.18.07.94a15.2,15.2,0,0,0,.2-4l.08-.14a4.52,4.52,0,0,1,.5,2.45v.28s1.61,1-.24-3l-.74-1h.91s-.56.1-1.18-.75c0,0-3-3-6.77-2.76,0,0-8.86-.15-8.25,7.91,0,0-.3,1.9,3.42,7.15,0,0,1.33,1.86.61,3.31l1.37-.88-.11,1.18,1.06-.68.31.91s.57-1.6-1.37-3.46c0,0-3.46-3-2-5.1C232.34,293.25,233.23,291.64,234.34,293.53Z"/><path class="cls-16" d="M233.16,293.71s.91.08.19,2.32"/><path class="cls-17" d="M242.73,294.87a.91.91,0,1,0,.89-1.08A1,1,0,0,0,242.73,294.87Z"/><path class="cls-18" d="M243.57,294.87a.48.48,0,1,0,.47-.58A.53.53,0,0,0,243.57,294.87Z"/><path class="cls-16" d="M243.17,299.75s-1.3.27-1.68-.3"/><path class="cls-19" d="M235.24,301.81a1.28,1.28,0,0,0,1.32.4,1.76,1.76,0,0,0,1.07-.4.78.78,0,0,1,.15,1.06,5.53,5.53,0,0,0-.08,1.24l.71,5.6,1,7.71v.89s-3.29,1.82-5.27-.18l.69-8.09.43-7A.76.76,0,0,1,235.24,301.81Z"/><path class="cls-20" d="M237.7,305.44s-1-1.58-1.94-.51c0,0-.79.48.19,2,0,0,3.51,8.15,4.62,9.48l.67,1.05.56-.48a32.09,32.09,0,0,1-1.69-3.25c.09-.12-2.7-8.18-2.56-8.24"/><path class="cls-14" d="M241.78,317s1.13.87,1.19,1.1l0,.23.35,1-.21.17-.52-.81-.11.08.48.87-.22.07-.46-.86-.08.07.31.81-.18.09-.53-.75s-.94-.94-.57-1.52l0-.16.54-.47Z"/><path class="cls-21" d="M287.92,333.25a12.16,12.16,0,0,0,.06,1.22,13.69,13.69,0,0,0,27.31.58,13.23,13.23,0,0,0,.12-1.79,13.75,13.75,0,1,0-27.49,0Zm22.28-1.2h-4a5.1,5.1,0,0,0-.5-1.26l2.81-2.91A9.28,9.28,0,0,1,310.2,332.05Zm-1.66,6.62-2.81-2.91a5.37,5.37,0,0,0,.5-1.24h4A9.07,9.07,0,0,1,308.54,338.67Zm-5.69-.67a4.46,4.46,0,0,0,1.19-.49l2.8,2.9a8.43,8.43,0,0,1-4,1.72Zm0-13.59a8.34,8.34,0,0,1,4,1.72l-2.8,2.91a4.9,4.9,0,0,0-1.22-.53Zm-2.38,4.1a4.68,4.68,0,0,0-1.21.53l-2.81-2.91a8.3,8.3,0,0,1,4-1.72Zm-4,11.9,2.8-2.91a4.3,4.3,0,0,0,1.19.5v4.12A8.42,8.42,0,0,1,296.48,340.41Zm-3.35-5.89h4a4.44,4.44,0,0,0,.51,1.23l-2.82,2.93A9.2,9.2,0,0,1,293.13,334.52Zm4-2.48h-4a9,9,0,0,1,1.65-4.16l2.8,2.91a4.65,4.65,0,0,0-.49,1.25Z"/><path d="M172.2,333.25a12.16,12.16,0,0,0,.06,1.22,13.69,13.69,0,0,0,27.31.58,15.08,15.08,0,0,0,.12-1.79,13.75,13.75,0,1,0-27.49,0Zm22.27-1.2h-3.95a5.1,5.1,0,0,0-.5-1.26l2.81-2.91A9.15,9.15,0,0,1,194.47,332.05Zm-1.65,6.62L190,335.76a4.93,4.93,0,0,0,.49-1.24h4A9.07,9.07,0,0,1,192.82,338.67Zm-5.69-.67a4.46,4.46,0,0,0,1.19-.49l2.79,2.9a8.35,8.35,0,0,1-4,1.72Zm0-9.49v-4.1a8.34,8.34,0,0,1,4,1.72L188.34,329a4.68,4.68,0,0,0-1.21-.53Zm-2.38,0a4.68,4.68,0,0,0-1.21.53l-2.8-2.91a8.23,8.23,0,0,1,4-1.72Zm-4,11.9,2.8-2.91a4.3,4.3,0,0,0,1.19.5v4.12A8.42,8.42,0,0,1,180.76,340.41Zm-3.35-5.89h4a4.79,4.79,0,0,0,.52,1.23l-2.82,2.93A9.08,9.08,0,0,1,177.41,334.52Zm4-2.48h-4a9.08,9.08,0,0,1,1.65-4.16l2.8,2.91a5.42,5.42,0,0,0-.49,1.25Z"/><path class="cls-22" d="M155.49,317.46l.1,2.56a16.71,16.71,0,0,0,8.31,14l4.74,2.7h1.14a17.78,17.78,0,0,1-.28-2c0-.48-.07-1-.07-1.46,0-9.44,7.4-17.14,16.51-17.14s16.51,7.7,16.51,17.14a18.15,18.15,0,0,1-.14,2.15c-.05.41-.13.81-.21,1.21l83.35-.18a15.83,15.83,0,0,1-.23-1.72c0-.48-.07-1-.07-1.46,0-9.44,7.4-17.14,16.51-17.14s16.51,7.7,16.51,17.14a18.15,18.15,0,0,1-.14,2.15c0,.17-.06.33-.08.5l2.87-.68a11.48,11.48,0,0,0,8.61-12.39c-.4-4.15-1.48-8.76-4.08-12.27-7.45-10.08-38.56-14.19-38.56-14.19s-17.91-9.89-35.52-14.8c-28.52-7.95-64.55-2.1-76.16.16a4.88,4.88,0,0,0-3.87,4.74h0l-9.76,11.23a8.94,8.94,0,0,0-2.17,5.87v8.26l-2.64,2.62A4.05,4.05,0,0,0,155.49,317.46Zm113.78-14.69-51.75-4.24V282.9c32.31-1.14,51.61,9.34,51.61,9.34l1.28,5.29C269,299.41,269.27,302.77,269.27,302.77Zm-84.95-10.59a3,3,0,0,1-.52-2.78,2.86,2.86,0,0,1,2-1.92,154.25,154.25,0,0,1,26-4.25v14.83l-24.33-2Z"/></g></g></svg>