<svg xmlns="http://www.w3.org/2000/svg" viewBox="0 0 35.11 33"><defs><style>.cls-1{fill:#fff;}</style></defs><title>Asset 42</title><g id="Layer_2" data-name="Layer 2"><g id="Layer_1-2" data-name="Layer 1"><path class="cls-1" d="M34.4,6.8a3.27,3.27,0,0,0-2.56-1.26H8.61l-.78-3A3.29,3.29,0,0,0,4.66,0H.82A.82.82,0,0,0,0,.82a.82.82,0,0,0,.82.81H4.66A1.59,1.59,0,0,1,6.21,2.84l4.6,18.32A3.29,3.29,0,0,0,14,23.65H29a3.26,3.26,0,0,0,3.16-2.48L35,9.55A3.12,3.12,0,0,0,34.4,6.8M29,22H14a1.59,1.59,0,0,1-1.55-1.21L9,7.21h22.8a1.61,1.61,0,0,1,1.27.63,1.51,1.51,0,0,1,.28,1.35L30.57,20.81A1.61,1.61,0,0,1,29,22"/><path class="cls-1" d="M14.77,25.86a3.57,3.57,0,1,0,3.57,3.57,3.57,3.57,0,0,0-3.57-3.57m0,5.47a1.9,1.9,0,1,1,1.89-1.9,1.92,1.92,0,0,1-1.89,1.9"/><path class="cls-1" d="M27.74,25.86a3.57,3.57,0,1,0,3.56,3.58,3.62,3.62,0,0,0-3.56-3.58m0,1.67a1.88,1.88,0,0,1,1.89,1.9,1.92,1.92,0,0,1-1.89,1.9,1.9,1.9,0,0,1,0-3.8"/></g></g></svg>