<svg xmlns="http://www.w3.org/2000/svg" viewBox="0 0 55.44 23.67"><title>Asset 45</title><g id="Layer_2" data-name="Layer 2"><g id="Layer_1-2" data-name="Layer 1"><path d="M54.77,14.14a.65.65,0,0,0,0-.13,6.33,6.33,0,0,0-.84-2C51.89,9.26,47.1,8,43.37,7.39,42.18,6.62,33.22.94,29,.38A83.75,83.75,0,0,0,8,1a.63.63,0,0,0-.51.77.65.65,0,0,0,.76.51A51.44,51.44,0,0,1,14,1.59,22.68,22.68,0,0,0,9.9,6.44a.63.63,0,0,0,0,.61.64.64,0,0,0,.51.37c2.37.34,31,1.19,32.69,1.25A28.38,28.38,0,0,1,48.65,10,5,5,0,0,0,49.7,13.3c1,1.18,3,1.5,3.91,1.6a27.23,27.23,0,0,1,.52,4.85H48.89a4.59,4.59,0,0,0,.1-1,4.9,4.9,0,1,0-9.8,0,5.25,5.25,0,0,0,.09,1l-26.19,0a5.56,5.56,0,0,0,.1-1,4.91,4.91,0,1,0-9.81,0,2,2,0,0,0,0,.24,4.35,4.35,0,0,1-1.91-.67,8.44,8.44,0,0,1,.42-4.76H2c2.68,0,4.6-3.73,4.82-4.18a.59.59,0,0,0,0-.59.6.6,0,0,0-.47-.33,11.42,11.42,0,0,0-1.48-.11A29.77,29.77,0,0,1,9.06,4.14a.66.66,0,0,0,.08-.92.67.67,0,0,0-.93-.08C-2,11.67.16,18.53.25,18.81l0,.07c.34.71,1.71,1.19,3.38,1.51a4.9,4.9,0,0,0,8.94.7c4,0,16.69,0,27.16,0a4.9,4.9,0,0,0,8.66,0h6.36a.67.67,0,0,0,.66-.66A27.73,27.73,0,0,0,54.77,14.14ZM18.32,6.53c-2.91-.11-5.34-.23-6.7-.31a19.56,19.56,0,0,1,4.7-4.78c1-.05,1.94-.08,2.9-.1C19,2.74,18.46,5.41,18.32,6.53Zm1.3,0c.14-.94.54-3.18.93-5.26a67.38,67.38,0,0,1,8.31.35c2.94.39,8.77,3.74,11.87,5.61C36.33,7.16,26.84,6.85,19.62,6.58ZM50.7,12.45A3.49,3.49,0,0,1,50,10.61a7.35,7.35,0,0,1,2.85,2.2,2.78,2.78,0,0,1,.37.71A4.43,4.43,0,0,1,50.7,12.45ZM3.89,9.67c.27,0,.76,0,1.26,0a5.84,5.84,0,0,1-2.72,2.52A17.12,17.12,0,0,1,3.89,9.67Zm4.4,12.17a3.08,3.08,0,1,1,3.07-3.07A3.08,3.08,0,0,1,8.29,21.84Zm35.8,0a3.05,3.05,0,1,1,3-3.05A3.06,3.06,0,0,1,44.09,21.82Z"/></g></g></svg>