<svg xmlns="http://www.w3.org/2000/svg" viewBox="0 0 946.34 326.68"><defs><style>.cls-1,.cls-2,.cls-5,.cls-6{fill:none;}.cls-1,.cls-6,.cls-7{stroke:#ec1c24;}.cls-1,.cls-2,.cls-3,.cls-7{stroke-linecap:round;stroke-linejoin:round;}.cls-2,.cls-3,.cls-5{stroke:#666;}.cls-3,.cls-7{fill:#fff;}.cls-4{fill:#e6e6e6;}.cls-5,.cls-6{stroke-miterlimit:10;}</style></defs><title>Asset 46</title><g id="Layer_2" data-name="Layer 2"><g id="Layer_1-2" data-name="Layer 1"><line class="cls-1" x1="940.26" y1="149.67" x2="829.84" y2="149.67"/><line class="cls-2" x1="940.26" y1="166.79" x2="829.84" y2="166.79"/><line class="cls-2" x1="940.26" y1="183.92" x2="829.84" y2="183.92"/><line class="cls-1" x1="940.26" y1="201.04" x2="829.84" y2="201.04"/><line class="cls-2" x1="940.26" y1="218.17" x2="829.84" y2="218.17"/><line class="cls-2" x1="940.26" y1="235.29" x2="829.84" y2="235.29"/><line class="cls-1" x1="940.26" y1="252.42" x2="829.84" y2="252.42"/><line class="cls-2" x1="940.26" y1="269.55" x2="829.84" y2="269.55"/><line class="cls-2" x1="940.26" y1="286.67" x2="829.84" y2="286.67"/><line class="cls-1" x1="940.26" y1="303.8" x2="829.84" y2="303.8"/><rect class="cls-2" x="822.28" y="132.37" width="123.56" height="193.75"/><rect class="cls-3" x="763.59" y="208.13" width="88.18" height="117.99"/><line class="cls-2" x1="847.78" y1="218.66" x2="768.98" y2="218.66"/><line class="cls-2" x1="847.78" y1="229.09" x2="768.98" y2="229.09"/><line class="cls-1" x1="847.78" y1="239.52" x2="768.98" y2="239.52"/><line class="cls-2" x1="847.78" y1="249.95" x2="768.98" y2="249.95"/><line class="cls-2" x1="847.78" y1="260.38" x2="768.98" y2="260.38"/><line class="cls-2" x1="847.78" y1="270.81" x2="768.98" y2="270.81"/><line class="cls-1" x1="847.78" y1="281.24" x2="768.98" y2="281.24"/><line class="cls-2" x1="847.78" y1="291.67" x2="768.98" y2="291.67"/><line class="cls-2" x1="847.78" y1="302.1" x2="768.98" y2="302.1"/><line class="cls-2" x1="847.78" y1="312.53" x2="768.98" y2="312.53"/><rect class="cls-2" x="118.43" y="82.74" width="92.47" height="242.6"/><rect class="cls-1" x="126.47" y="89.21" width="8.64" height="8.64"/><rect class="cls-4" x="150.02" y="89.21" width="8.64" height="8.64"/><rect class="cls-2" x="173.84" y="89.21" width="8.64" height="8.64"/><rect class="cls-2" x="195.35" y="89.21" width="8.64" height="8.64"/><rect class="cls-2" x="126.47" y="106.93" width="8.64" height="8.64"/><rect class="cls-2" x="150.02" y="106.93" width="8.64" height="8.64"/><rect class="cls-4" x="173.84" y="106.93" width="8.64" height="8.64"/><rect class="cls-1" x="195.35" y="106.93" width="8.64" height="8.64"/><rect class="cls-5" x="126.47" y="124.64" width="8.64" height="8.64"/><rect class="cls-6" x="150.02" y="124.64" width="8.64" height="8.64"/><rect class="cls-5" x="173.84" y="124.64" width="8.64" height="8.64"/><rect class="cls-4" x="195.35" y="124.64" width="8.64" height="8.64"/><rect class="cls-4" x="126.47" y="142.36" width="8.64" height="8.64"/><rect class="cls-5" x="150.02" y="142.36" width="8.64" height="8.64"/><rect class="cls-6" x="173.84" y="142.36" width="8.64" height="8.64"/><rect class="cls-5" x="195.35" y="142.36" width="8.64" height="8.64"/><rect class="cls-5" x="126.47" y="160.08" width="8.64" height="8.64"/><rect class="cls-6" x="150.02" y="160.08" width="8.64" height="8.64"/><rect class="cls-4" x="173.84" y="160.08" width="8.64" height="8.64"/><rect class="cls-5" x="195.35" y="160.08" width="8.64" height="8.64"/><rect class="cls-6" x="126.47" y="177.79" width="8.64" height="8.64"/><rect class="cls-4" x="150.02" y="177.79" width="8.64" height="8.64"/><rect class="cls-5" x="173.84" y="177.79" width="8.64" height="8.64"/><rect class="cls-5" x="195.35" y="177.79" width="8.64" height="8.64"/><rect class="cls-5" x="126.47" y="195.51" width="8.64" height="8.64"/><rect class="cls-5" x="150.02" y="195.51" width="8.64" height="8.64"/><rect class="cls-4" x="173.84" y="195.51" width="8.64" height="8.64"/><rect class="cls-6" x="195.35" y="195.51" width="8.64" height="8.64"/><rect class="cls-4" x="126.47" y="213.22" width="8.64" height="8.65"/><rect class="cls-6" x="150.02" y="213.22" width="8.64" height="8.65"/><rect class="cls-5" x="173.84" y="213.22" width="8.64" height="8.65"/><rect class="cls-5" x="195.35" y="213.22" width="8.64" height="8.65"/><rect class="cls-5" x="126.47" y="230.94" width="8.64" height="8.64"/><rect class="cls-5" x="150.02" y="230.94" width="8.64" height="8.64"/><rect class="cls-4" x="173.84" y="230.94" width="8.64" height="8.64"/><rect class="cls-5" x="195.35" y="230.94" width="8.64" height="8.64"/><rect class="cls-5" x="126.47" y="248.66" width="8.64" height="8.64"/><rect class="cls-6" x="150.02" y="248.66" width="8.64" height="8.64"/><rect class="cls-5" x="173.84" y="248.66" width="8.64" height="8.64"/><rect class="cls-4" x="195.35" y="248.66" width="8.64" height="8.64"/><rect class="cls-5" x="126.47" y="266.37" width="8.64" height="8.64"/><rect class="cls-4" x="150.02" y="266.37" width="8.64" height="8.64"/><rect class="cls-5" x="173.84" y="266.37" width="8.64" height="8.64"/><rect class="cls-6" x="195.35" y="266.37" width="8.64" height="8.64"/><rect class="cls-6" x="126.47" y="284.09" width="8.64" height="8.64"/><rect class="cls-5" x="150.02" y="284.09" width="8.64" height="8.64"/><rect class="cls-4" x="173.84" y="284.09" width="8.64" height="8.64"/><rect class="cls-5" x="195.35" y="284.09" width="8.64" height="8.64"/><rect class="cls-5" x="126.47" y="301.8" width="8.64" height="8.64"/><rect class="cls-5" x="150.02" y="301.8" width="8.64" height="8.64"/><rect class="cls-6" x="173.84" y="301.8" width="8.64" height="8.64"/><rect class="cls-4" x="195.35" y="301.8" width="8.64" height="8.64"/><line class="cls-2" x1="129.18" y1="35.88" x2="129.18" y2="82.74"/><line class="cls-2" x1="210.9" y1="34.43" x2="118.43" y2="34.43"/><line class="cls-1" x1="138.23" y1="35.88" x2="138.23" y2="82.74"/><line class="cls-2" x1="148.41" y1="35.88" x2="148.41" y2="82.74"/><line class="cls-1" x1="158.6" y1="35.88" x2="158.6" y2="82.74"/><line class="cls-2" x1="168.79" y1="35.88" x2="168.79" y2="82.74"/><line class="cls-2" x1="178.97" y1="35.88" x2="178.97" y2="82.74"/><line class="cls-1" x1="189.15" y1="35.88" x2="189.15" y2="82.74"/><line class="cls-2" x1="199.34" y1="35.88" x2="199.34" y2="82.74"/><polygon class="cls-2" points="189.16 23.05 189.16 12.75 138.23 12.75 138.23 23.05 129.18 23.05 129.18 34.13 199.67 34.13 199.67 23.05 189.16 23.05"/><path class="cls-2" d="M.5,267.54v57.74H36.41V308.92c0-9.58,7.2-17.35,16.08-17.35s16.09,7.77,16.09,17.35v16.36h35.91V267.54Z"/><rect class="cls-2" x="8" y="252.34" width="90.32" height="15.2"/><path class="cls-2" d="M90,222.1c0-36.79-16.8-66.62-37.52-66.62S15,185.31,15,222.1,90,258.89,90,222.1Z"/><rect class="cls-3" x="14.97" y="221.21" width="75.05" height="31.42"/><path class="cls-7" d="M26.23,209a7.84,7.84,0,0,1,8-7.62h0a7.84,7.84,0,0,1,8,7.62v9.05c0,4.2-16.08,4.2-16.08,0Z"/><path class="cls-4" d="M21.41,240.13a7.83,7.83,0,0,1,8-7.61h0a7.84,7.84,0,0,1,8,7.61v9.06c0,4.2-16.08,4.2-16.08,0Z"/><path class="cls-7" d="M44.19,240.43a7.83,7.83,0,0,1,8-7.61h0a7.83,7.83,0,0,1,8,7.61v9c0,4.21-16.08,4.21-16.08,0Z"/><path class="cls-4" d="M68.58,240.43a7.83,7.83,0,0,1,8-7.61h0a7.83,7.83,0,0,1,8,7.61v9c0,4.21-16.08,4.21-16.08,0Z"/><path class="cls-7" d="M61.61,209a7.84,7.84,0,0,1,8-7.62h0a7.84,7.84,0,0,1,8,7.62v9.05c0,4.2-16.08,4.2-16.08,0Z"/><line class="cls-2" x1="52.23" y1="135.04" x2="52.23" y2="155.54"/><line class="cls-2" x1="47.27" y1="139.06" x2="57.25" y2="139.06"/><line class="cls-1" x1="0.5" y1="274.14" x2="104.49" y2="274.14"/><line class="cls-2" x1="0.5" y1="280.57" x2="104.49" y2="280.57"/><line class="cls-2" x1="0.5" y1="287.01" x2="104.49" y2="287.01"/><line class="cls-1" x1="0.5" y1="293.44" x2="44.19" y2="293.44"/><line class="cls-2" x1="0.5" y1="299.87" x2="37.49" y2="299.87"/><line class="cls-2" x1="0.5" y1="306.3" x2="36.41" y2="306.3"/><line class="cls-2" x1="0.5" y1="312.73" x2="36.41" y2="312.73"/><line class="cls-2" x1="0.5" y1="319.17" x2="36.41" y2="319.17"/><line class="cls-1" x1="60.8" y1="293.44" x2="104.49" y2="293.44"/><line class="cls-2" x1="67.24" y1="299.87" x2="104.22" y2="299.87"/><line class="cls-2" x1="68.85" y1="306.3" x2="104.22" y2="306.3"/><line class="cls-2" x1="68.85" y1="312.73" x2="104.22" y2="312.73"/><line class="cls-2" x1="68.85" y1="319.17" x2="104.22" y2="319.17"/><rect class="cls-2" x="336.62" y="192.88" width="76.96" height="18.85"/><polyline class="cls-2" points="255.82 262.03 222.05 262.12 222.05 324.51"/><polyline class="cls-2" points="491.41 262.03 525.18 262.12 525.18 324.51"/><rect class="cls-4" x="259.84" y="299.94" width="11.26" height="21.8"/><rect class="cls-1" x="259.84" y="274.62" width="11.26" height="12.63"/><rect class="cls-2" x="304.87" y="274.62" width="11.26" height="12.63"/><rect class="cls-4" x="349.9" y="274.62" width="11.26" height="12.63"/><rect class="cls-1" x="394.92" y="274.62" width="11.26" height="12.63"/><rect class="cls-4" x="439.95" y="274.62" width="11.26" height="12.63"/><rect class="cls-2" x="484.98" y="274.62" width="11.26" height="12.63"/><rect class="cls-4" x="304.87" y="299.94" width="11.26" height="21.8"/><rect class="cls-1" x="349.9" y="299.94" width="11.26" height="21.8"/><rect class="cls-4" x="394.92" y="299.94" width="11.26" height="21.8"/><rect class="cls-1" x="439.95" y="299.94" width="11.26" height="21.8"/><rect class="cls-4" x="484.98" y="299.94" width="11.26" height="21.8"/><line class="cls-2" x1="275.96" y1="262.12" x2="469.69" y2="262.12"/><line class="cls-2" x1="275.96" y1="255.88" x2="469.69" y2="255.88"/><line class="cls-1" x1="282.32" y1="240.97" x2="282.32" y2="255.85"/><line class="cls-2" x1="288.57" y1="240.97" x2="288.57" y2="255.85"/><line class="cls-2" x1="294.82" y1="240.97" x2="294.82" y2="255.85"/><line class="cls-1" x1="301.07" y1="240.97" x2="301.07" y2="255.85"/><line class="cls-2" x1="307.32" y1="240.97" x2="307.32" y2="255.85"/><line class="cls-2" x1="313.57" y1="240.97" x2="313.57" y2="255.85"/><line class="cls-2" x1="319.82" y1="240.97" x2="319.82" y2="255.85"/><line class="cls-1" x1="326.06" y1="240.97" x2="326.06" y2="255.85"/><line class="cls-2" x1="420.1" y1="240.97" x2="420.1" y2="255.85"/><line class="cls-1" x1="426.35" y1="240.97" x2="426.35" y2="255.85"/><line class="cls-2" x1="432.6" y1="240.97" x2="432.6" y2="255.85"/><line class="cls-1" x1="438.85" y1="240.97" x2="438.85" y2="255.85"/><line class="cls-2" x1="445.1" y1="240.97" x2="445.1" y2="255.85"/><line class="cls-1" x1="451.35" y1="240.97" x2="451.35" y2="255.85"/><line class="cls-2" x1="457.6" y1="240.97" x2="457.6" y2="255.85"/><line class="cls-2" x1="463.85" y1="240.97" x2="463.85" y2="255.85"/><path class="cls-2" d="M336.62,183.32a38.56,38.56,0,0,1,38.48-38.64h0a38.56,38.56,0,0,1,38.48,38.64Z"/><path class="cls-3" d="M334.58,239.76a38.57,38.57,0,0,1,38.49-38.65h0a38.56,38.56,0,0,1,38.48,38.65Z"/><path class="cls-2" d="M275.59,238.9a28.34,28.34,0,0,1,28.1-28.57h0a28.34,28.34,0,0,1,28.1,28.57Z"/><path class="cls-2" d="M413.61,238.62c0-16,12.58-28.92,28.1-28.92h0c15.53,0,28.11,13,28.11,28.92Z"/><line class="cls-2" x1="242.55" y1="182.18" x2="242.55" y2="261.62"/><line class="cls-2" x1="249.52" y1="181.79" x2="249.52" y2="261.24"/><line class="cls-2" x1="255.41" y1="181.79" x2="255.41" y2="261.24"/><line class="cls-2" x1="242.49" y1="146.31" x2="242.49" y2="180.36"/><line class="cls-2" x1="249.46" y1="146.15" x2="249.46" y2="180.19"/><line class="cls-2" x1="255.35" y1="146.15" x2="255.35" y2="180.19"/><polygon class="cls-2" points="257.5 181.83 240.34 181.75 240.34 182.13 257.5 182.22 257.5 181.83"/><rect class="cls-2" x="248.83" y="138.67" width="0.38" height="13.08" transform="translate(102.56 393.5) rotate(-89.71)"/><rect class="cls-2" x="244.2" y="124.51" width="9.94" height="20.48"/><line class="cls-2" x1="248.92" y1="111.92" x2="249.02" y2="124.51"/><line class="cls-2" x1="259.36" y1="216.49" x2="259.36" y2="234.58"/><line class="cls-2" x1="266.33" y1="216.4" x2="266.33" y2="234.5"/><line class="cls-2" x1="272.22" y1="216.4" x2="272.22" y2="234.5"/><polygon class="cls-2" points="272.44 215.82 259.36 215.78 259.36 215.99 272.44 216.02 272.44 215.82"/><rect class="cls-2" x="261.07" y="204.9" width="9.94" height="10.88"/><line class="cls-2" x1="265.79" y1="198.2" x2="265.9" y2="204.9"/><line class="cls-2" x1="255.82" y1="235.63" x2="275.59" y2="235.63"/><line class="cls-2" x1="491.27" y1="181.75" x2="491.27" y2="261.19"/><line class="cls-2" x1="498.24" y1="181.37" x2="498.24" y2="260.81"/><line class="cls-2" x1="504.14" y1="181.37" x2="504.14" y2="260.81"/><line class="cls-2" x1="491.21" y1="145.88" x2="491.21" y2="179.93"/><line class="cls-2" x1="498.18" y1="145.72" x2="498.18" y2="179.76"/><line class="cls-2" x1="504.08" y1="145.72" x2="504.08" y2="179.76"/><polygon class="cls-2" points="506.23 181.41 489.06 181.32 489.06 181.7 506.23 181.79 506.23 181.41"/><rect class="cls-2" x="497.56" y="138.24" width="0.38" height="13.08" transform="translate(350.46 641.8) rotate(-89.71)"/><rect class="cls-2" x="492.92" y="124.08" width="9.94" height="20.48"/><line class="cls-2" x1="497.64" y1="111.49" x2="497.75" y2="124.08"/><line class="cls-2" x1="474.38" y1="215.54" x2="474.38" y2="233.64"/><line class="cls-2" x1="481.35" y1="215.45" x2="481.35" y2="233.55"/><line class="cls-2" x1="487.24" y1="215.45" x2="487.24" y2="233.55"/><polygon class="cls-2" points="487.46 214.87 474.38 214.84 474.38 215.04 487.46 215.07 487.46 214.87"/><rect class="cls-2" x="476.09" y="203.95" width="9.94" height="10.88"/><line class="cls-2" x1="480.81" y1="197.26" x2="480.92" y2="203.95"/><line class="cls-2" x1="419.81" y1="193.47" x2="419.81" y2="211.25"/><line class="cls-2" x1="432.68" y1="193.39" x2="432.68" y2="211.16"/><polygon class="cls-2" points="432.89 192.81 419.81 192.78 419.81 192.98 432.89 193.01 432.89 192.81"/><rect class="cls-2" x="421.52" y="182.09" width="9.94" height="10.69"/><line class="cls-2" x1="426.25" y1="175.52" x2="426.35" y2="182.09"/><line class="cls-2" x1="316.31" y1="193.21" x2="316.31" y2="211.31"/><line class="cls-2" x1="329.17" y1="193.12" x2="329.17" y2="211.22"/><polygon class="cls-2" points="329.39 192.54 316.31 192.5 316.31 192.71 329.39 192.74 329.39 192.54"/><rect class="cls-2" x="318.02" y="181.62" width="9.94" height="10.88"/><line class="cls-2" x1="322.74" y1="174.92" x2="322.85" y2="181.62"/><line class="cls-2" x1="470.84" y1="234.69" x2="490.61" y2="234.69"/><line class="cls-2" x1="336.73" y1="188.11" x2="413.58" y2="188.11"/><line class="cls-2" x1="313.57" y1="211.9" x2="336.62" y2="211.9"/><line class="cls-2" x1="412.96" y1="211.73" x2="431.61" y2="211.73"/><line class="cls-2" x1="303.69" y1="197.26" x2="303.69" y2="210.33"/><line class="cls-2" x1="443.49" y1="196.62" x2="443.49" y2="209.69"/><line class="cls-2" x1="376.3" y1="131.61" x2="376.3" y2="144.68"/><polyline class="cls-2" points="560.16 8.13 567.88 14.38 591.02 14.38 600.79 14.38"/><line class="cls-2" x1="591.02" y1="14.38" x2="580.48" y2="3.54"/><line class="cls-2" x1="654.24" y1="208.06" x2="743.36" y2="208.06"/><line class="cls-2" x1="629.74" y1="226.82" x2="655.77" y2="226.82"/><line class="cls-2" x1="687.97" y1="189.4" x2="714" y2="189.4"/><line class="cls-2" x1="685.28" y1="223.34" x2="725.67" y2="223.34"/><line class="cls-2" x1="285.71" y1="19.16" x2="374.83" y2="19.16"/><line class="cls-2" x1="261.21" y1="37.92" x2="287.24" y2="37.92"/><line class="cls-2" x1="319.44" y1="0.5" x2="345.47" y2="0.5"/><line class="cls-2" x1="316.75" y1="34.44" x2="357.14" y2="34.44"/><line class="cls-2" x1="819.45" y1="49.68" x2="908.58" y2="49.68"/><line class="cls-2" x1="794.96" y1="68.44" x2="820.98" y2="68.44"/><line class="cls-2" x1="853.18" y1="31.02" x2="879.21" y2="31.02"/><line class="cls-2" x1="850.5" y1="64.96" x2="890.88" y2="64.96"/><line class="cls-2" x1="646.13" y1="260.7" x2="583.95" y2="326.18"/><line class="cls-2" x1="646.13" y1="260.7" x2="636.48" y2="326.01"/><line class="cls-2" x1="646.13" y1="260.7" x2="726.97" y2="326.12"/><line class="cls-2" x1="594.14" y1="261.55" x2="543.24" y2="326.18"/><line class="cls-2" x1="594.14" y1="261.55" x2="607.44" y2="301.44"/><line class="cls-2" x1="594.14" y1="261.55" x2="626.38" y2="281.49"/><line class="cls-2" x1="711.08" y1="261.55" x2="761.98" y2="326.18"/><line class="cls-2" x1="711.08" y1="261.55" x2="697.78" y2="301.44"/><line class="cls-2" x1="711.08" y1="261.55" x2="675.68" y2="284.94"/><line class="cls-2" x1="0.5" y1="325.28" x2="945.84" y2="326.12"/><rect class="cls-2" x="413.74" y="240.97" width="55.94" height="14.88"/><rect class="cls-2" x="275.96" y="240.97" width="55.95" height="14.88"/></g></g></svg>